<svg viewBox="0 0 512 512" xmlns="http://www.w3.org/2000/svg">
  <defs></defs>
  <path d="M 133.494 403.816 C 99.175 403.816 69.852 391.936 45.527 368.176 C 21.202 344.417 9.039 315.377 9.039 281.057 C 9.039 251.64 17.901 225.429 35.627 202.424 C 53.352 179.418 76.547 164.71 105.209 158.298 C 114.637 123.602 133.494 95.505 161.78 74.008 C 190.065 52.511 222.123 41.762 257.95 41.762 C 302.075 41.762 339.507 57.131 370.243 87.868 C 400.981 118.604 416.349 156.036 416.349 200.161 C 442.372 203.178 463.963 214.398 481.123 233.82 C 498.282 253.243 506.862 275.965 506.862 301.989 C 506.862 330.274 496.962 354.317 477.162 374.116 C 457.363 393.916 433.32 403.816 405.035 403.816 L 133.494 403.816 Z M 133.494 358.559 L 405.035 358.559 C 420.875 358.559 434.263 353.091 445.199 342.153 C 456.137 331.216 461.605 317.829 461.605 301.989 C 461.605 286.148 456.137 272.76 445.199 261.823 C 434.263 250.886 420.875 245.417 405.035 245.417 L 371.091 245.417 L 371.091 200.161 C 371.091 168.858 360.061 142.176 337.998 120.113 C 315.935 98.051 289.253 87.019 257.95 87.019 C 226.648 87.019 199.965 98.051 177.902 120.113 C 155.841 142.176 144.808 168.858 144.808 200.161 L 133.494 200.161 C 111.621 200.161 92.952 207.892 77.488 223.355 C 62.026 238.818 54.295 257.486 54.295 279.36 C 54.295 301.234 62.026 319.902 77.488 335.365 C 92.952 350.827 111.621 358.559 133.494 358.559 Z M 257.95 222.79 Z" style="stroke: rgb(255, 255, 255); stroke-width: 10px;"></path>
  <path d="M 191.244 299.222 C 185.096 299.222 179.833 297.032 175.453 292.653 C 171.076 288.275 168.886 283.011 168.886 276.863 C 168.886 270.715 171.076 265.451 175.453 261.073 C 179.833 256.694 185.096 254.505 191.244 254.505 C 197.392 254.505 202.656 256.694 207.035 261.073 C 211.413 265.451 213.603 270.715 213.603 276.863 C 213.603 283.011 211.413 288.275 207.035 292.653 C 202.656 297.032 197.392 299.222 191.244 299.222 Z M 191.244 343.938 C 172.613 343.938 156.776 337.417 143.733 324.375 C 130.691 311.332 124.169 295.495 124.169 276.863 C 124.169 258.231 130.691 242.395 143.733 229.352 C 156.776 216.309 172.613 209.789 191.244 209.789 C 203.728 209.789 215.047 212.862 225.201 219.011 C 235.355 225.16 243.413 233.265 249.375 243.326 L 347.753 243.326 L 381.29 276.863 L 330.984 327.169 L 308.625 310.401 L 286.267 327.169 L 262.511 310.401 L 249.375 310.401 C 243.413 320.462 235.355 328.567 225.201 334.715 C 215.047 340.864 203.728 343.938 191.244 343.938 Z M 191.244 321.58 C 201.678 321.58 210.855 318.413 218.772 312.078 C 226.692 305.742 231.955 297.731 234.564 288.042 L 269.498 288.042 L 285.708 299.501 L 308.625 282.453 L 328.468 297.825 L 349.429 276.863 L 338.25 265.684 L 234.564 265.684 C 231.955 255.996 226.692 247.984 218.772 241.648 C 210.855 235.314 201.678 232.146 191.244 232.146 C 178.947 232.146 168.42 236.525 159.663 245.282 C 150.906 254.039 146.527 264.566 146.527 276.863 C 146.527 289.16 150.906 299.688 159.663 308.445 C 168.42 317.201 178.947 321.58 191.244 321.58 Z" style=""></path>
</svg>